<svg width="155" height="151" viewBox="0 0 155 151" fill="none" xmlns="http://www.w3.org/2000/svg">
<path d="M39.7657 66.6133L39.3053 50.3747L124.216 47.8074L124.679 64.0478L39.7657 66.6133ZM41.564 52.5064L41.9014 64.3467L122.42 61.9118L122.082 50.0715L41.564 52.5064Z" fill="#AD0F1A"/>
<path d="M45.3577 115.853L43.8643 63.3609L120.402 61.0477L121.897 113.537L45.3594 115.851L45.3577 115.853ZM46.1256 65.4943L47.496 113.588L119.639 111.406L118.267 63.3143L46.1256 65.4943Z" fill="#AD0F1A"/>
<path d="M69.6194 50.5565L59.2217 50.8711L61.0304 114.277L71.4281 113.962L69.6194 50.5565Z" fill="#AD0F1A"/>
<path d="M65.0119 53.6917L64.8688 48.6395L65.12 48.3226C65.12 48.3226 65.4745 47.8756 66.1244 47.1182C70.0273 42.4939 83.4724 27.2863 92.3938 25.974C96.2973 25.4111 99.4483 27.3605 101.271 31.4508C103.215 35.8217 103.248 42.1393 101.333 43.7415C93.4845 50.2946 77.0293 52.6388 67.9199 53.4523L65.0093 53.69L65.0119 53.6917ZM67.1086 50.1441L67.1413 51.3092L67.7287 51.2636C83.0131 49.8999 94.4474 46.6265 99.9209 42.0572C100.657 41.4121 101.072 36.3096 99.2059 32.2397C98.7812 31.3109 98.2871 30.5343 97.7296 29.9175C97.897 30.973 97.5804 32.2346 96.8017 33.5377C93.4854 39.1106 75.8558 47.1535 68.4299 50.3533L67.3346 50.8242L67.1059 50.1424L67.1086 50.1441ZM94.8843 29.5644C94.4289 29.4129 93.7602 29.372 92.9492 29.4581C86.306 30.1392 74.5019 42.2472 69.7926 47.3556C80.8293 42.467 92.6299 36.2468 94.9157 32.409C95.5361 31.3715 95.743 30.4036 95.4482 29.9431C95.3437 29.7782 95.1506 29.6523 94.8817 29.5627L94.8843 29.5644Z" fill="#AD0F1A"/>
<path d="M65.7147 51.5008L65.6398 48.7174L65.9039 48.3977C65.9039 48.3977 66.1544 48.099 66.6173 47.5885L67.4644 46.6541L68.2707 47.6193C68.61 48.023 68.8695 48.4864 69.0376 48.9873L69.3695 49.9673L65.7104 51.5017L65.7147 51.5008Z" fill="#AD0F1A"/>
<path d="M42.1949 50.7455C38.3049 49.4506 35.445 47.7393 33.6368 45.6181C32.8787 44.7216 32.7101 42.9948 33.124 40.3399C33.75 36.333 35.8733 29.9601 37.906 28.6844C44.7509 24.4017 57.6513 40.1945 62.8794 47.1901C63.4897 47.9939 63.8219 48.4713 63.8219 48.4713L64.0095 48.7426L64.1511 53.723L62.9888 53.6919C62.3454 53.6749 61.7746 53.6605 61.2071 53.6297C53.3397 53.3078 46.987 52.3452 42.1958 50.7498L42.1949 50.7455ZM37.8418 32.3944C36.9192 34.2892 35.8597 37.3467 35.3432 40.4041C34.9053 42.9987 35.1735 44.0192 35.3135 44.1925C38.8861 48.3764 47.8783 50.8807 61.3124 51.4256C61.5062 51.4364 61.6974 51.4455 61.8859 51.4529L61.853 50.2653L61.6997 50.6945L60.5984 50.1704C56.189 48.075 41.5487 40.7083 38.338 33.9324C38.0672 33.3609 37.9101 32.8487 37.8375 32.3953L37.8418 32.3944ZM41.6509 31.1775C40.9457 30.9414 40.3638 31.0241 40.1394 31.2542C39.8757 31.5219 39.9485 32.1804 40.3279 32.9791C42.6802 37.9511 52.706 43.6737 58.2876 46.5555C54.4256 41.9369 47.0269 33.6272 41.9946 31.3121C41.8773 31.258 41.7645 31.2143 41.6509 31.1775Z" fill="#AD0F1A"/>
<path d="M62.8885 51.2271L59.704 49.7513L60.04 48.8079C60.1418 48.5203 60.2796 48.2748 60.4268 48.0318L61.2268 46.6903L62.2204 47.8931C62.4802 48.2077 62.6116 48.3827 62.6116 48.3827L62.8182 48.659L62.8928 51.2262L62.8885 51.2271Z" fill="#AD0F1A"/>
<path d="M62.9645 55.2297C61.8699 54.8664 60.9212 54.114 60.3175 53.0833C59.9026 52.3733 59.6826 51.604 59.6558 50.7892C59.6362 50.0834 59.7772 49.3706 60.0677 48.7254C60.1349 48.5196 60.2743 48.2714 60.4216 48.0284C60.6755 47.6387 60.9423 47.3321 61.2534 47.043C62.1797 46.2496 63.2426 45.8284 64.3645 45.7959C65.5953 45.7562 66.7753 46.1937 67.6927 47.0115C67.8964 47.1666 68.1261 47.402 68.3276 47.6861C68.6144 48.0221 68.8713 48.4838 69.042 48.9863C69.2088 49.4266 69.3142 49.961 69.3296 50.4964C69.3539 51.3207 69.1697 52.1395 68.8022 52.8575C67.9553 54.4477 66.4013 55.4169 64.6398 55.4722C64.0624 55.4908 63.497 55.4054 62.9662 55.2271L62.9645 55.2297ZM65.3014 48.1241C65.0204 48.0304 64.7277 47.9887 64.4295 47.9955C63.6525 48.0181 63.0715 48.3845 62.7138 48.6879C62.5613 48.8306 62.4125 49.0019 62.2829 49.2006C62.2387 49.2798 62.162 49.3975 62.1106 49.5391C61.9254 49.966 61.8477 50.3476 61.8565 50.7221C61.8702 51.1633 61.99 51.5841 62.2167 51.9666C62.7045 52.7987 63.6067 53.2973 64.5774 53.2743C65.542 53.2436 66.392 52.7097 66.8524 51.8437C67.0416 51.4678 67.142 51.0228 67.129 50.5635C67.1219 50.272 67.0664 49.9862 66.9707 49.7338C66.8729 49.4502 66.7506 49.2327 66.5853 49.0355C66.4566 48.8622 66.3815 48.7834 66.2848 48.7093C65.977 48.4341 65.6431 48.2388 65.2971 48.1251L65.3014 48.1241Z" fill="#AD0F1A"/>
</svg>
